<mxfile host="app.diagrams.net" agent="Mozilla/5.0 (Windows NT 10.0; Win64; x64) AppleWebKit/537.36 (KHTML, like Gecko) Chrome/129.0.0.0 Safari/537.36" version="24.7.16">
  <diagram name="Страница — 1" id="PL6_fJvvjjux5TMCyqCx">
    <mxGraphModel dx="1334" dy="525" grid="0" gridSize="10" guides="1" tooltips="1" connect="1" arrows="1" fold="1" page="0" pageScale="1" pageWidth="827" pageHeight="1169" math="0" shadow="0">
      <root>
        <mxCell id="0" />
        <mxCell id="1" parent="0" />
        <mxCell id="IhCpI_MLEhV9grS_OZYk-1" value="Вклад" style="rounded=0;whiteSpace=wrap;html=1;" vertex="1" parent="1">
          <mxGeometry x="370" y="455" width="80" height="30" as="geometry" />
        </mxCell>
        <mxCell id="IhCpI_MLEhV9grS_OZYk-4" value="&amp;nbsp;id вклада" style="ellipse;whiteSpace=wrap;html=1;" vertex="1" parent="1">
          <mxGeometry x="250" y="385" width="80" height="40" as="geometry" />
        </mxCell>
        <mxCell id="IhCpI_MLEhV9grS_OZYk-5" value="" style="endArrow=none;html=1;rounded=0;exitX=0.5;exitY=1;exitDx=0;exitDy=0;entryX=0;entryY=0.5;entryDx=0;entryDy=0;" edge="1" parent="1" source="IhCpI_MLEhV9grS_OZYk-4" target="IhCpI_MLEhV9grS_OZYk-1">
          <mxGeometry width="50" height="50" relative="1" as="geometry">
            <mxPoint x="540" y="495" as="sourcePoint" />
            <mxPoint x="590" y="445" as="targetPoint" />
          </mxGeometry>
        </mxCell>
        <mxCell id="IhCpI_MLEhV9grS_OZYk-6" value="&amp;nbsp;id клиента" style="ellipse;whiteSpace=wrap;html=1;" vertex="1" parent="1">
          <mxGeometry x="370" y="385" width="80" height="40" as="geometry" />
        </mxCell>
        <mxCell id="IhCpI_MLEhV9grS_OZYk-8" value="" style="endArrow=none;html=1;rounded=0;exitX=0.5;exitY=1;exitDx=0;exitDy=0;entryX=0.5;entryY=0;entryDx=0;entryDy=0;" edge="1" parent="1" source="IhCpI_MLEhV9grS_OZYk-6" target="IhCpI_MLEhV9grS_OZYk-1">
          <mxGeometry width="50" height="50" relative="1" as="geometry">
            <mxPoint x="540" y="495" as="sourcePoint" />
            <mxPoint x="590" y="445" as="targetPoint" />
          </mxGeometry>
        </mxCell>
        <mxCell id="IhCpI_MLEhV9grS_OZYk-9" value="сумма" style="ellipse;whiteSpace=wrap;html=1;" vertex="1" parent="1">
          <mxGeometry x="480" y="385" width="80" height="40" as="geometry" />
        </mxCell>
        <mxCell id="IhCpI_MLEhV9grS_OZYk-10" value="" style="endArrow=none;html=1;rounded=0;exitX=1;exitY=0.5;exitDx=0;exitDy=0;entryX=0.5;entryY=1;entryDx=0;entryDy=0;" edge="1" parent="1" source="IhCpI_MLEhV9grS_OZYk-1" target="IhCpI_MLEhV9grS_OZYk-9">
          <mxGeometry width="50" height="50" relative="1" as="geometry">
            <mxPoint x="540" y="415" as="sourcePoint" />
            <mxPoint x="590" y="365" as="targetPoint" />
          </mxGeometry>
        </mxCell>
        <mxCell id="IhCpI_MLEhV9grS_OZYk-11" value="процентная ставка" style="ellipse;whiteSpace=wrap;html=1;" vertex="1" parent="1">
          <mxGeometry x="240" y="505" width="80" height="40" as="geometry" />
        </mxCell>
        <mxCell id="IhCpI_MLEhV9grS_OZYk-12" value="" style="endArrow=none;html=1;rounded=0;exitX=1;exitY=0.5;exitDx=0;exitDy=0;entryX=0.25;entryY=1;entryDx=0;entryDy=0;" edge="1" parent="1" source="IhCpI_MLEhV9grS_OZYk-11" target="IhCpI_MLEhV9grS_OZYk-1">
          <mxGeometry width="50" height="50" relative="1" as="geometry">
            <mxPoint x="400" y="535" as="sourcePoint" />
            <mxPoint x="450" y="485" as="targetPoint" />
          </mxGeometry>
        </mxCell>
        <mxCell id="IhCpI_MLEhV9grS_OZYk-13" value="дата открытия" style="ellipse;whiteSpace=wrap;html=1;" vertex="1" parent="1">
          <mxGeometry x="326" y="531" width="80" height="40" as="geometry" />
        </mxCell>
        <mxCell id="IhCpI_MLEhV9grS_OZYk-14" value="" style="endArrow=none;html=1;rounded=0;exitX=0.5;exitY=0;exitDx=0;exitDy=0;entryX=0.375;entryY=1;entryDx=0;entryDy=0;entryPerimeter=0;" edge="1" parent="1" source="IhCpI_MLEhV9grS_OZYk-13" target="IhCpI_MLEhV9grS_OZYk-1">
          <mxGeometry width="50" height="50" relative="1" as="geometry">
            <mxPoint x="400" y="535" as="sourcePoint" />
            <mxPoint x="405" y="487" as="targetPoint" />
          </mxGeometry>
        </mxCell>
        <mxCell id="IhCpI_MLEhV9grS_OZYk-15" value="срок" style="ellipse;whiteSpace=wrap;html=1;" vertex="1" parent="1">
          <mxGeometry x="453" y="522" width="80" height="40" as="geometry" />
        </mxCell>
        <mxCell id="IhCpI_MLEhV9grS_OZYk-16" value="" style="endArrow=none;html=1;rounded=0;exitX=0.5;exitY=0;exitDx=0;exitDy=0;entryX=0.75;entryY=1;entryDx=0;entryDy=0;" edge="1" parent="1" source="IhCpI_MLEhV9grS_OZYk-15" target="IhCpI_MLEhV9grS_OZYk-1">
          <mxGeometry width="50" height="50" relative="1" as="geometry">
            <mxPoint x="400" y="535" as="sourcePoint" />
            <mxPoint x="450" y="495" as="targetPoint" />
          </mxGeometry>
        </mxCell>
        <mxCell id="IhCpI_MLEhV9grS_OZYk-18" value="Клиент" style="rounded=0;whiteSpace=wrap;html=1;" vertex="1" parent="1">
          <mxGeometry x="10" y="455" width="94" height="38" as="geometry" />
        </mxCell>
        <mxCell id="IhCpI_MLEhV9grS_OZYk-22" style="edgeStyle=orthogonalEdgeStyle;rounded=0;orthogonalLoop=1;jettySize=auto;html=1;entryX=0;entryY=0.5;entryDx=0;entryDy=0;" edge="1" parent="1" source="IhCpI_MLEhV9grS_OZYk-19" target="IhCpI_MLEhV9grS_OZYk-1">
          <mxGeometry relative="1" as="geometry" />
        </mxCell>
        <mxCell id="IhCpI_MLEhV9grS_OZYk-19" value="открывает" style="rhombus;whiteSpace=wrap;html=1;" vertex="1" parent="1">
          <mxGeometry x="151" y="430" width="129" height="80" as="geometry" />
        </mxCell>
        <mxCell id="IhCpI_MLEhV9grS_OZYk-23" style="edgeStyle=orthogonalEdgeStyle;rounded=0;orthogonalLoop=1;jettySize=auto;html=1;entryX=0.989;entryY=0.404;entryDx=0;entryDy=0;entryPerimeter=0;" edge="1" parent="1" source="IhCpI_MLEhV9grS_OZYk-19" target="IhCpI_MLEhV9grS_OZYk-18">
          <mxGeometry relative="1" as="geometry" />
        </mxCell>
        <mxCell id="IhCpI_MLEhV9grS_OZYk-24" value="1" style="text;html=1;align=center;verticalAlign=middle;whiteSpace=wrap;rounded=0;" vertex="1" parent="1">
          <mxGeometry x="91" y="447" width="60" height="30" as="geometry" />
        </mxCell>
        <mxCell id="IhCpI_MLEhV9grS_OZYk-26" value="М" style="text;html=1;align=center;verticalAlign=middle;whiteSpace=wrap;rounded=0;" vertex="1" parent="1">
          <mxGeometry x="299" y="447" width="60" height="30" as="geometry" />
        </mxCell>
        <mxCell id="IhCpI_MLEhV9grS_OZYk-27" value="&amp;nbsp;id клиента" style="ellipse;whiteSpace=wrap;html=1;" vertex="1" parent="1">
          <mxGeometry x="-86" y="380" width="80" height="40" as="geometry" />
        </mxCell>
        <mxCell id="IhCpI_MLEhV9grS_OZYk-28" value="" style="endArrow=none;html=1;rounded=0;exitX=0.5;exitY=1;exitDx=0;exitDy=0;entryX=0;entryY=0;entryDx=0;entryDy=0;" edge="1" parent="1" source="IhCpI_MLEhV9grS_OZYk-27" target="IhCpI_MLEhV9grS_OZYk-18">
          <mxGeometry width="50" height="50" relative="1" as="geometry">
            <mxPoint x="229" y="523" as="sourcePoint" />
            <mxPoint x="279" y="473" as="targetPoint" />
          </mxGeometry>
        </mxCell>
        <mxCell id="IhCpI_MLEhV9grS_OZYk-29" value="имя" style="ellipse;whiteSpace=wrap;html=1;" vertex="1" parent="1">
          <mxGeometry x="17" y="373" width="80" height="40" as="geometry" />
        </mxCell>
        <mxCell id="IhCpI_MLEhV9grS_OZYk-31" value="" style="endArrow=none;html=1;rounded=0;exitX=0.5;exitY=1;exitDx=0;exitDy=0;entryX=0.5;entryY=0;entryDx=0;entryDy=0;" edge="1" parent="1" source="IhCpI_MLEhV9grS_OZYk-29" target="IhCpI_MLEhV9grS_OZYk-18">
          <mxGeometry width="50" height="50" relative="1" as="geometry">
            <mxPoint x="229" y="523" as="sourcePoint" />
            <mxPoint x="279" y="473" as="targetPoint" />
          </mxGeometry>
        </mxCell>
        <mxCell id="IhCpI_MLEhV9grS_OZYk-32" value="фамилия" style="ellipse;whiteSpace=wrap;html=1;" vertex="1" parent="1">
          <mxGeometry x="-144" y="435" width="80" height="40" as="geometry" />
        </mxCell>
        <mxCell id="IhCpI_MLEhV9grS_OZYk-33" value="" style="endArrow=none;html=1;rounded=0;exitX=1;exitY=0.5;exitDx=0;exitDy=0;entryX=0;entryY=0.5;entryDx=0;entryDy=0;" edge="1" parent="1" source="IhCpI_MLEhV9grS_OZYk-32" target="IhCpI_MLEhV9grS_OZYk-18">
          <mxGeometry width="50" height="50" relative="1" as="geometry">
            <mxPoint x="2" y="519" as="sourcePoint" />
            <mxPoint x="52" y="469" as="targetPoint" />
          </mxGeometry>
        </mxCell>
        <mxCell id="IhCpI_MLEhV9grS_OZYk-35" style="edgeStyle=orthogonalEdgeStyle;rounded=0;orthogonalLoop=1;jettySize=auto;html=1;entryX=0.75;entryY=1;entryDx=0;entryDy=0;" edge="1" parent="1" source="IhCpI_MLEhV9grS_OZYk-34" target="IhCpI_MLEhV9grS_OZYk-1">
          <mxGeometry relative="1" as="geometry" />
        </mxCell>
        <mxCell id="IhCpI_MLEhV9grS_OZYk-39" style="edgeStyle=orthogonalEdgeStyle;rounded=0;orthogonalLoop=1;jettySize=auto;html=1;entryX=0.5;entryY=0;entryDx=0;entryDy=0;" edge="1" parent="1" source="IhCpI_MLEhV9grS_OZYk-34" target="IhCpI_MLEhV9grS_OZYk-38">
          <mxGeometry relative="1" as="geometry" />
        </mxCell>
        <mxCell id="IhCpI_MLEhV9grS_OZYk-34" value="производится" style="rhombus;whiteSpace=wrap;html=1;" vertex="1" parent="1">
          <mxGeometry x="365" y="571" width="129" height="80" as="geometry" />
        </mxCell>
        <mxCell id="IhCpI_MLEhV9grS_OZYk-36" value="1" style="text;html=1;align=center;verticalAlign=middle;whiteSpace=wrap;rounded=0;" vertex="1" parent="1">
          <mxGeometry x="413" y="496" width="21" height="30" as="geometry" />
        </mxCell>
        <mxCell id="IhCpI_MLEhV9grS_OZYk-38" value="Транзакция" style="rounded=0;whiteSpace=wrap;html=1;" vertex="1" parent="1">
          <mxGeometry x="382" y="704" width="95" height="40" as="geometry" />
        </mxCell>
        <mxCell id="IhCpI_MLEhV9grS_OZYk-40" value="М" style="text;html=1;align=center;verticalAlign=middle;whiteSpace=wrap;rounded=0;" vertex="1" parent="1">
          <mxGeometry x="390" y="667" width="60" height="30" as="geometry" />
        </mxCell>
        <mxCell id="IhCpI_MLEhV9grS_OZYk-41" value="&amp;nbsp;id транзакции" style="ellipse;whiteSpace=wrap;html=1;" vertex="1" parent="1">
          <mxGeometry x="504" y="772" width="87" height="40" as="geometry" />
        </mxCell>
        <mxCell id="IhCpI_MLEhV9grS_OZYk-42" value="" style="endArrow=none;html=1;rounded=0;exitX=1;exitY=1;exitDx=0;exitDy=0;entryX=0.5;entryY=0;entryDx=0;entryDy=0;" edge="1" parent="1" source="IhCpI_MLEhV9grS_OZYk-38" target="IhCpI_MLEhV9grS_OZYk-41">
          <mxGeometry width="50" height="50" relative="1" as="geometry">
            <mxPoint x="426" y="683" as="sourcePoint" />
            <mxPoint x="476" y="633" as="targetPoint" />
          </mxGeometry>
        </mxCell>
        <mxCell id="IhCpI_MLEhV9grS_OZYk-43" value="&amp;nbsp;id вклада" style="ellipse;whiteSpace=wrap;html=1;" vertex="1" parent="1">
          <mxGeometry x="400" y="775" width="87" height="40" as="geometry" />
        </mxCell>
        <mxCell id="IhCpI_MLEhV9grS_OZYk-45" value="" style="endArrow=none;html=1;rounded=0;exitX=0.5;exitY=0;exitDx=0;exitDy=0;entryX=0.601;entryY=0.964;entryDx=0;entryDy=0;entryPerimeter=0;" edge="1" parent="1" source="IhCpI_MLEhV9grS_OZYk-43" target="IhCpI_MLEhV9grS_OZYk-38">
          <mxGeometry width="50" height="50" relative="1" as="geometry">
            <mxPoint x="401" y="842" as="sourcePoint" />
            <mxPoint x="451" y="792" as="targetPoint" />
          </mxGeometry>
        </mxCell>
        <mxCell id="IhCpI_MLEhV9grS_OZYk-46" value="дата" style="ellipse;whiteSpace=wrap;html=1;" vertex="1" parent="1">
          <mxGeometry x="501" y="651" width="87" height="40" as="geometry" />
        </mxCell>
        <mxCell id="IhCpI_MLEhV9grS_OZYk-47" value="" style="endArrow=none;html=1;rounded=0;exitX=1;exitY=0;exitDx=0;exitDy=0;entryX=0;entryY=1;entryDx=0;entryDy=0;" edge="1" parent="1" source="IhCpI_MLEhV9grS_OZYk-38" target="IhCpI_MLEhV9grS_OZYk-46">
          <mxGeometry width="50" height="50" relative="1" as="geometry">
            <mxPoint x="402" y="627" as="sourcePoint" />
            <mxPoint x="452" y="577" as="targetPoint" />
          </mxGeometry>
        </mxCell>
        <mxCell id="IhCpI_MLEhV9grS_OZYk-48" value="тип" style="ellipse;whiteSpace=wrap;html=1;" vertex="1" parent="1">
          <mxGeometry x="516" y="704" width="87" height="40" as="geometry" />
        </mxCell>
        <mxCell id="IhCpI_MLEhV9grS_OZYk-49" value="" style="endArrow=none;html=1;rounded=0;exitX=1;exitY=0.5;exitDx=0;exitDy=0;entryX=0;entryY=0.5;entryDx=0;entryDy=0;" edge="1" parent="1" source="IhCpI_MLEhV9grS_OZYk-38" target="IhCpI_MLEhV9grS_OZYk-48">
          <mxGeometry width="50" height="50" relative="1" as="geometry">
            <mxPoint x="402" y="765" as="sourcePoint" />
            <mxPoint x="452" y="715" as="targetPoint" />
          </mxGeometry>
        </mxCell>
        <mxCell id="IhCpI_MLEhV9grS_OZYk-50" value="сумма" style="ellipse;whiteSpace=wrap;html=1;" vertex="1" parent="1">
          <mxGeometry x="285.5" y="772" width="87" height="40" as="geometry" />
        </mxCell>
        <mxCell id="IhCpI_MLEhV9grS_OZYk-51" value="" style="endArrow=none;html=1;rounded=0;exitX=0.971;exitY=0.324;exitDx=0;exitDy=0;exitPerimeter=0;entryX=0.108;entryY=0.987;entryDx=0;entryDy=0;entryPerimeter=0;" edge="1" parent="1" source="IhCpI_MLEhV9grS_OZYk-50" target="IhCpI_MLEhV9grS_OZYk-38">
          <mxGeometry width="50" height="50" relative="1" as="geometry">
            <mxPoint x="402" y="765" as="sourcePoint" />
            <mxPoint x="452" y="715" as="targetPoint" />
          </mxGeometry>
        </mxCell>
        <mxCell id="IhCpI_MLEhV9grS_OZYk-52" value="Отчет" style="rounded=0;whiteSpace=wrap;html=1;" vertex="1" parent="1">
          <mxGeometry x="107" y="704" width="95" height="40" as="geometry" />
        </mxCell>
        <mxCell id="IhCpI_MLEhV9grS_OZYk-54" style="edgeStyle=orthogonalEdgeStyle;rounded=0;orthogonalLoop=1;jettySize=auto;html=1;entryX=0;entryY=0.5;entryDx=0;entryDy=0;" edge="1" parent="1" source="IhCpI_MLEhV9grS_OZYk-53" target="IhCpI_MLEhV9grS_OZYk-38">
          <mxGeometry relative="1" as="geometry" />
        </mxCell>
        <mxCell id="IhCpI_MLEhV9grS_OZYk-55" style="edgeStyle=orthogonalEdgeStyle;rounded=0;orthogonalLoop=1;jettySize=auto;html=1;entryX=1;entryY=0.5;entryDx=0;entryDy=0;" edge="1" parent="1" source="IhCpI_MLEhV9grS_OZYk-53" target="IhCpI_MLEhV9grS_OZYk-52">
          <mxGeometry relative="1" as="geometry" />
        </mxCell>
        <mxCell id="IhCpI_MLEhV9grS_OZYk-53" value="составляется" style="rhombus;whiteSpace=wrap;html=1;" vertex="1" parent="1">
          <mxGeometry x="235" y="691" width="102" height="67" as="geometry" />
        </mxCell>
        <mxCell id="IhCpI_MLEhV9grS_OZYk-56" value="1" style="text;html=1;align=center;verticalAlign=middle;whiteSpace=wrap;rounded=0;" vertex="1" parent="1">
          <mxGeometry x="208" y="697" width="21" height="30" as="geometry" />
        </mxCell>
        <mxCell id="IhCpI_MLEhV9grS_OZYk-57" value="1" style="text;html=1;align=center;verticalAlign=middle;whiteSpace=wrap;rounded=0;" vertex="1" parent="1">
          <mxGeometry x="351.5" y="697" width="21" height="30" as="geometry" />
        </mxCell>
        <mxCell id="IhCpI_MLEhV9grS_OZYk-58" value="&amp;nbsp;id транзакции" style="ellipse;whiteSpace=wrap;html=1;" vertex="1" parent="1">
          <mxGeometry x="155" y="791" width="87" height="40" as="geometry" />
        </mxCell>
        <mxCell id="IhCpI_MLEhV9grS_OZYk-59" value="" style="endArrow=none;html=1;rounded=0;exitX=0.5;exitY=0;exitDx=0;exitDy=0;entryX=0.75;entryY=1;entryDx=0;entryDy=0;" edge="1" parent="1" source="IhCpI_MLEhV9grS_OZYk-58" target="IhCpI_MLEhV9grS_OZYk-52">
          <mxGeometry width="50" height="50" relative="1" as="geometry">
            <mxPoint x="169" y="776" as="sourcePoint" />
            <mxPoint x="219" y="726" as="targetPoint" />
          </mxGeometry>
        </mxCell>
        <mxCell id="IhCpI_MLEhV9grS_OZYk-60" value="дата составления" style="ellipse;whiteSpace=wrap;html=1;" vertex="1" parent="1">
          <mxGeometry x="57" y="791" width="87" height="40" as="geometry" />
        </mxCell>
        <mxCell id="IhCpI_MLEhV9grS_OZYk-61" value="" style="endArrow=none;html=1;rounded=0;exitX=0.5;exitY=0;exitDx=0;exitDy=0;entryX=0.25;entryY=1;entryDx=0;entryDy=0;" edge="1" parent="1" source="IhCpI_MLEhV9grS_OZYk-60" target="IhCpI_MLEhV9grS_OZYk-52">
          <mxGeometry width="50" height="50" relative="1" as="geometry">
            <mxPoint x="179" y="776" as="sourcePoint" />
            <mxPoint x="229" y="726" as="targetPoint" />
          </mxGeometry>
        </mxCell>
        <mxCell id="IhCpI_MLEhV9grS_OZYk-62" value="&amp;nbsp;id сотрудника" style="ellipse;whiteSpace=wrap;html=1;" vertex="1" parent="1">
          <mxGeometry x="-26" y="753" width="87" height="40" as="geometry" />
        </mxCell>
        <mxCell id="IhCpI_MLEhV9grS_OZYk-63" value="" style="endArrow=none;html=1;rounded=0;exitX=1;exitY=0;exitDx=0;exitDy=0;entryX=0;entryY=0.5;entryDx=0;entryDy=0;" edge="1" parent="1" source="IhCpI_MLEhV9grS_OZYk-62" target="IhCpI_MLEhV9grS_OZYk-52">
          <mxGeometry width="50" height="50" relative="1" as="geometry">
            <mxPoint x="142" y="653" as="sourcePoint" />
            <mxPoint x="192" y="603" as="targetPoint" />
          </mxGeometry>
        </mxCell>
        <mxCell id="IhCpI_MLEhV9grS_OZYk-64" value="содержание" style="ellipse;whiteSpace=wrap;html=1;" vertex="1" parent="1">
          <mxGeometry x="-24" y="670" width="87" height="40" as="geometry" />
        </mxCell>
        <mxCell id="IhCpI_MLEhV9grS_OZYk-65" value="" style="endArrow=none;html=1;rounded=0;exitX=1;exitY=0.5;exitDx=0;exitDy=0;entryX=0;entryY=0;entryDx=0;entryDy=0;" edge="1" parent="1" source="IhCpI_MLEhV9grS_OZYk-64" target="IhCpI_MLEhV9grS_OZYk-52">
          <mxGeometry width="50" height="50" relative="1" as="geometry">
            <mxPoint x="142" y="653" as="sourcePoint" />
            <mxPoint x="192" y="603" as="targetPoint" />
          </mxGeometry>
        </mxCell>
        <mxCell id="IhCpI_MLEhV9grS_OZYk-66" value="Сотрудник банка" style="rounded=0;whiteSpace=wrap;html=1;" vertex="1" parent="1">
          <mxGeometry x="-120" y="542" width="94" height="38" as="geometry" />
        </mxCell>
        <mxCell id="IhCpI_MLEhV9grS_OZYk-68" style="edgeStyle=orthogonalEdgeStyle;rounded=0;orthogonalLoop=1;jettySize=auto;html=1;entryX=1;entryY=0.5;entryDx=0;entryDy=0;" edge="1" parent="1" source="IhCpI_MLEhV9grS_OZYk-67" target="IhCpI_MLEhV9grS_OZYk-66">
          <mxGeometry relative="1" as="geometry" />
        </mxCell>
        <mxCell id="IhCpI_MLEhV9grS_OZYk-69" style="edgeStyle=orthogonalEdgeStyle;rounded=0;orthogonalLoop=1;jettySize=auto;html=1;entryX=0.75;entryY=0;entryDx=0;entryDy=0;exitX=1;exitY=0.5;exitDx=0;exitDy=0;" edge="1" parent="1" source="IhCpI_MLEhV9grS_OZYk-67" target="IhCpI_MLEhV9grS_OZYk-52">
          <mxGeometry relative="1" as="geometry" />
        </mxCell>
        <mxCell id="IhCpI_MLEhV9grS_OZYk-67" value="составляет" style="rhombus;whiteSpace=wrap;html=1;" vertex="1" parent="1">
          <mxGeometry x="36" y="574" width="102" height="67" as="geometry" />
        </mxCell>
        <mxCell id="IhCpI_MLEhV9grS_OZYk-72" value="1" style="text;html=1;align=center;verticalAlign=middle;whiteSpace=wrap;rounded=0;" vertex="1" parent="1">
          <mxGeometry x="-17" y="532" width="21" height="30" as="geometry" />
        </mxCell>
        <mxCell id="IhCpI_MLEhV9grS_OZYk-73" value="М" style="text;html=1;align=center;verticalAlign=middle;whiteSpace=wrap;rounded=0;" vertex="1" parent="1">
          <mxGeometry x="158" y="661" width="60" height="30" as="geometry" />
        </mxCell>
      </root>
    </mxGraphModel>
  </diagram>
</mxfile>
